<?xml version="1.0" encoding="UTF-8"?>
<svg width="64px" height="64px" viewBox="0 0 64 64" version="1.1" xmlns="http://www.w3.org/2000/svg" xmlns:xlink="http://www.w3.org/1999/xlink">
    <!-- Generator: Sketch 57.1 (83088) - https://sketch.com -->
    <title>Artboard</title>
    <desc>Created with Sketch.</desc>
    <g id="Artboard" stroke="none" stroke-width="1" fill="none" fill-rule="evenodd">
        <g id="rsm-logo" transform="translate(12.000000, 2.000000)">
            <circle id="Oval" stroke="#343148" stroke-width="1.92307692" fill-opacity="0" fill="#D8D8D8" fill-rule="nonzero" cx="21.5384615" cy="18.4615385" r="18.4615385"></circle>
            <path d="M6.30846931,3.23154625 C-2.01871018,11.5587258 -2.10198198,25.0080128 6.05865392,33.4376345 L6.30846931,33.6915307 C14.7197618,42.1028231 28.3571613,42.1028231 36.7684538,33.6915307 L36.7684538,33.6915307" id="Path" stroke="#343148" stroke-width="1.92307692" fill-opacity="0" fill="#D8D8D8" fill-rule="nonzero" stroke-linecap="round"></path>
            <path d="M5.38461538,18.4615385 C5.38461538,15.9125319 12.6169387,13.8461538 21.5384615,13.8461538 C30.4599844,13.8461538 37.6923077,15.9125319 37.6923077,18.4615385 C37.6923077,21.010545 30.4599844,23.0769231 21.5384615,23.0769231 C12.6169387,23.0769231 5.38461538,21.010545 5.38461538,18.4615385 Z" id="Oval" stroke="#FF5533" stroke-width="1.92307692" fill-opacity="0" fill="#D8D8D8" fill-rule="nonzero"></path>
            <path d="M13.4615385,32.4511796 C11.2540341,31.1766763 13.0806598,23.8801116 17.5414212,16.1538462 C22.0021827,8.42758069 27.4078802,3.19739405 29.6153846,4.47189732 C31.822889,5.74640062 29.9962633,13.0429653 25.5355018,20.7692308 C21.0747404,28.4954962 15.6690428,33.7256828 13.4615385,32.4511796 Z" id="Oval-Copy" stroke="#FF5533" stroke-width="1.92307692" fill-opacity="0" fill="#D8D8D8" fill-rule="nonzero"></path>
            <path d="M29.6153846,32.4511796 C27.4078802,33.7256828 22.0021827,28.4954962 17.5414212,20.7692308 C13.0806598,13.0429653 11.2540341,5.74640062 13.4615385,4.47189732 C15.6690428,3.19739405 21.0747404,8.42758069 25.5355018,16.1538462 C29.9962633,23.8801116 31.822889,31.1766763 29.6153846,32.4511796 Z" id="Oval-Copy-2" stroke="#FF5533" stroke-width="1.92307692" fill-opacity="0" fill="#D8D8D8" fill-rule="nonzero"></path>
            <circle id="Oval" stroke="#FF5533" stroke-width="1.15384615" fill="#FF5533" fill-rule="nonzero" cx="21.5384615" cy="18.4615385" r="1.53846154"></circle>
            <path d="M21.5384615,43.0769231 L21.5384615,45.3846154" id="Path-2" stroke="#343148" stroke-width="1.92307692" stroke-linecap="round"></path>
            <path d="M12.3076923,48.4615385 L30.7692308,48.4615385" id="Path-3" stroke="#343148" stroke-width="1.92307692" stroke-linecap="round"></path>
            <path d="M16.6123077,59.6846154 L14.3507692,57.1215385 C15.5138462,56.8630769 16.2461538,56.0123077 16.2461538,54.8276923 C16.2461538,53.4169231 15.2123077,52.4692308 13.6507692,52.4692308 L10,52.4692308 L10,59.6846154 L11.7769231,59.6846154 L11.7769231,57.2076923 L12.2938462,57.2076923 L14.4692308,59.6846154 L16.6123077,59.6846154 Z M11.7769231,55.7215385 L11.7769231,53.9876923 L13.4569231,53.9876923 C14.0923077,53.9876923 14.5015385,54.3323077 14.5015385,54.8492308 C14.5015385,55.3769231 14.0923077,55.7215385 13.4569231,55.7215385 L11.7769231,55.7215385 Z M20.3276923,52.3076923 C18.6369231,52.3076923 17.4738462,53.18 17.4738462,54.58 C17.4738462,55.8938462 18.3784615,56.4323077 19.4123077,56.6692308 L20.92,56.9923077 C21.4369231,57.1 21.5876923,57.3046154 21.5876923,57.6276923 C21.5876923,58.0692308 21.1892308,58.3707692 20.5215385,58.3707692 C19.8,58.3707692 19.2830769,58.0476923 19.1,57.3046154 L17.2692308,57.66 C17.4630769,59.0707692 18.7984615,59.8461538 20.4246154,59.8461538 C22.0292308,59.8461538 23.3969231,59.0492308 23.3969231,57.5092308 C23.3969231,56.3676923 22.6646154,55.6892308 21.4153846,55.4092308 L19.9184615,55.0753846 C19.4661538,54.9784615 19.3369231,54.7630769 19.3369231,54.4723077 C19.3369231,54.0630769 19.7138462,53.74 20.3061538,53.74 C20.8769231,53.74 21.4369231,54.0738462 21.5661538,54.7523077 L23.3107692,54.3969231 C23.0415385,53.0830769 21.9,52.3076923 20.3276923,52.3076923 Z M33.0784615,52.4692308 L33.0784615,59.6846154 L31.3553846,59.6846154 L31.3553846,55.84 L29.3307692,59.6846154 L28.5123077,59.6846154 L26.4769231,55.8184615 L26.4769231,59.6846154 L24.7538462,59.6846154 L24.7538462,52.4692308 L26.4984615,52.4692308 L28.9215385,57.0461538 L31.3446154,52.4692308 L33.0784615,52.4692308 Z" id="RSM" fill="#FF5533" fill-rule="nonzero"></path>
        </g>
    </g>
</svg>